<svg width="400" height="40" viewBox="0 0 1311 585" fill="none" xmlns="http://www.w3.org/2000/svg">
<path d="M579.83 204.18L575.585 218.613C562.284 207.01 545.021 199.935 525.211 199.935C479.365 199.935 445.122 234.461 445.122 280.59C445.122 326.719 479.365 361.528 525.211 361.528C544.738 361.528 561.718 354.736 574.736 343.133L578.415 357H610.677V204.18H579.83ZM528.607 322.474C504.552 322.474 487.006 304.362 487.006 280.59C487.006 256.535 504.552 238.706 528.607 238.706C552.662 238.706 570.208 256.535 570.208 280.59C570.208 304.645 552.662 322.474 528.607 322.474ZM704.755 361.528C743.526 361.528 768.996 341.152 768.996 310.022C768.996 272.666 737.017 267.572 712.113 263.044C696.265 260.214 683.247 257.667 683.247 247.479C683.247 238.706 690.888 233.046 703.623 233.046C718.056 233.046 726.546 238.989 726.829 251.158H766.166C765.883 220.594 741.545 199.935 704.755 199.935C667.965 199.935 643.344 220.028 643.344 248.894C643.344 284.835 674.474 291.344 698.812 295.589C714.943 298.136 728.244 301.249 728.244 311.72C728.244 321.908 717.773 327.285 706.453 327.285C691.737 327.285 681.266 320.493 680.983 306.909H640.797C640.797 339.454 666.55 361.528 704.755 361.528ZM886.834 200.784C868.439 200.784 852.308 207.576 840.705 218.613V149.278H799.387V357H840.705V276.911C840.705 252.007 854.289 237.008 874.948 237.008C893.343 237.008 901.55 248.328 901.55 271.251V357H942.868V264.176C942.868 225.405 921.36 200.784 886.834 200.784ZM1128.98 280.307C1128.98 236.159 1096.71 199.935 1049.74 199.935C1004.46 199.935 970.496 234.744 970.496 280.59C970.496 326.436 1004.74 361.528 1049.74 361.528C1085.39 361.528 1114.54 340.303 1125.58 306.909H1082.28C1076.06 317.946 1064.17 324.738 1049.74 324.738C1029.64 324.738 1016.06 313.135 1012.38 292.193H1128.13C1128.69 288.231 1128.98 284.269 1128.98 280.307ZM1049.74 235.31C1068.41 235.31 1081.72 245.498 1087.66 264.176H1013.51C1018.32 246.064 1031.34 235.31 1049.74 235.31ZM1249.29 206.444H1209.95V193.426C1209.95 182.672 1215.61 177.012 1226.65 177.012H1249.01V144.467H1218.44C1186.18 144.467 1169.77 163.145 1169.77 192.577V206.444H1143.17V240.404H1169.48V357H1210.8V240.404H1249.29V206.444Z" fill="#00DBC5"/>
<path d="M189.634 380.79L186.582 380.75L96.6126 380.578L96.3512 243.95L96.3572 188.169L97.1792 188.705C113.042 237.775 145.821 277.602 189.476 300.851L189.613 375.271L189.632 380.785L189.634 380.79ZM189.386 249.896L189.379 249.896C186.981 248.089 184.603 246.179 182.313 244.221L189.387 248.826L189.386 249.886L189.386 249.896Z" fill="#00DBC5"/>
<path d="M244.104 193.308L265.073 194.279C265.664 176.459 260.275 158.795 249.624 143.637C238.66 127.836 222.338 115.676 203.196 109.048L196.224 127.392C211.043 132.528 223.682 141.938 232.185 154.165C240.418 165.88 244.576 179.536 244.104 193.308Z" fill="#00DBC5"/>
<path d="M293.596 117.583C275.4 91.3644 248.31 71.192 216.543 60.2043L209.571 78.5482C237.003 88.0648 260.403 105.483 276.157 128.113C291.446 149.818 299.179 175.132 298.32 200.667L319.287 201.632C320.24 172.054 311.279 142.739 293.596 117.583V117.583Z" fill="#00DBC5"/>
<path d="M339.913 92.7263C315.922 58.5953 281.721 33.1132 240.916 19.0133L231.959 42.5814C267.203 54.808 297.267 77.1862 317.507 106.26C337.151 134.146 347.086 166.669 345.982 199.476L372.919 200.716C374.145 162.712 362.633 125.048 339.913 92.7263V92.7263Z" fill="#00DBC5"/>
<path d="M151.049 245.395C211.976 313.982 292.765 360.788 384.889 380.784L408.485 320.058C328.91 302.735 259.066 262.209 206.419 203.107C156.51 146.994 126.453 78.1259 120.3 5.78058L51.2426 16.8009C58.4844 100.592 93.3058 180.346 151.049 245.395V245.395Z" fill="#00DBC5"/>
<path d="M11.163 557.876V543.541H28.365V538.6H11.163V525.424H29.951V520.3H5.795V563H30.622V557.876H11.163ZM61.2492 530.06L50.3302 556.29L39.1062 530.06H33.7382L47.9512 563H52.7092L66.5562 530.06H61.2492ZM102.768 546.713C102.768 537.075 96.1803 529.389 86.1763 529.389C76.5993 529.389 69.4013 536.77 69.4013 546.53C69.4013 556.351 76.5993 563.732 86.1763 563.732C93.3133 563.732 99.1083 559.767 101.914 552.996H96.4243C94.4113 556.534 90.7513 558.669 86.1763 558.669C79.9543 558.669 75.3793 554.643 74.5863 548.543H102.646C102.707 547.933 102.768 547.323 102.768 546.713ZM86.1763 534.269C92.0323 534.269 96.4853 537.929 97.5833 543.785H74.7083C75.7453 538.051 80.1983 534.269 86.1763 534.269ZM125.572 529.938C120.814 529.938 117.398 531.707 115.019 535.123L114.226 530.06H110.505V563H115.69V545.127C115.69 538.722 119.106 534.818 125.145 534.818H128.5V529.938H125.572ZM158.131 530.06L147.09 555.009L135.378 530.06H129.766L144.406 560.804L143.247 563.244C140.563 568.734 139.038 570.076 134.585 570.076H131.962V574.773H135.073C141.295 574.773 144.406 572.211 147.944 564.403L163.682 530.06H158.131ZM200.604 529.389C195.846 529.389 191.881 531.341 189.319 534.574V518.348H184.134V563H189.319V545.066C189.319 538.905 193.65 534.086 199.323 534.086C204.996 534.086 208.168 537.868 208.168 544.517V563H213.353V543.297C213.353 534.757 208.473 529.389 200.604 529.389ZM238.156 563.732C248.099 563.732 255.602 556.412 255.602 546.53C255.602 536.709 248.099 529.389 238.156 529.389C228.152 529.389 220.649 536.648 220.649 546.53C220.649 556.412 228.152 563.732 238.156 563.732ZM238.156 558.73C231.08 558.73 225.956 553.606 225.956 546.53C225.956 539.515 231.08 534.391 238.156 534.391C245.171 534.391 250.295 539.515 250.295 546.591C250.295 553.606 245.171 558.73 238.156 558.73ZM277.512 563.732C286.479 563.732 292.152 557.998 292.152 549.153V530.06H286.967V548.299C286.967 554.704 283.429 558.73 277.512 558.73C271.717 558.73 268.118 554.765 268.118 548.299V530.06H262.933V549.153C262.933 557.998 268.667 563.732 277.512 563.732ZM317.091 529.938C312.333 529.938 308.917 531.707 306.538 535.123L305.745 530.06H302.024V563H307.209V545.127C307.209 538.722 310.625 534.818 316.664 534.818H320.019V529.938H317.091ZM367.912 530.06L367.241 535.123C364.191 531.524 359.616 529.389 354.248 529.389C344.488 529.389 337.168 536.709 337.168 546.591C337.168 556.351 344.488 563.732 354.248 563.732C359.616 563.732 364.13 561.597 367.18 558.059L367.729 563H371.999V530.06H367.912ZM354.614 558.73C347.66 558.73 342.475 553.484 342.475 546.53C342.475 539.637 347.66 534.391 354.614 534.391C361.629 534.391 366.692 539.576 366.692 546.53C366.692 553.545 361.629 558.73 354.614 558.73ZM398.914 529.389C393.851 529.389 389.642 531.585 387.141 535.245L386.165 530.06H382.444V563H387.629V545.066C387.629 538.905 391.96 534.086 397.633 534.086C403.306 534.086 406.478 537.868 406.478 544.517V563H411.663V543.297C411.663 535.245 406.783 529.389 398.914 529.389ZM448.177 518.348V534.269C445.127 531.219 440.857 529.389 435.977 529.389C426.095 529.389 418.958 536.709 418.958 546.591C418.958 556.351 426.095 563.732 435.977 563.732C441.162 563.732 445.615 561.719 448.665 558.364L449.336 563.061H453.362V518.348H448.177ZM436.343 558.73C429.389 558.73 424.265 553.545 424.265 546.591C424.265 539.576 429.389 534.391 436.343 534.391C443.358 534.391 448.482 539.637 448.482 546.591C448.482 553.484 443.358 558.73 436.343 558.73ZM510.587 546.713C510.587 537.075 503.999 529.389 493.995 529.389C484.418 529.389 477.22 536.77 477.22 546.53C477.22 556.351 484.418 563.732 493.995 563.732C501.132 563.732 506.927 559.767 509.733 552.996H504.243C502.23 556.534 498.57 558.669 493.995 558.669C487.773 558.669 483.198 554.643 482.405 548.543H510.465C510.526 547.933 510.587 547.323 510.587 546.713ZM493.995 534.269C499.851 534.269 504.304 537.929 505.402 543.785H482.527C483.564 538.051 488.017 534.269 493.995 534.269ZM540.731 530.06L529.812 556.29L518.588 530.06H513.22L527.433 563H532.191L546.038 530.06H540.731ZM582.25 546.713C582.25 537.075 575.662 529.389 565.658 529.389C556.081 529.389 548.883 536.77 548.883 546.53C548.883 556.351 556.081 563.732 565.658 563.732C572.795 563.732 578.59 559.767 581.396 552.996H575.906C573.893 556.534 570.233 558.669 565.658 558.669C559.436 558.669 554.861 554.643 554.068 548.543H582.128C582.189 547.933 582.25 547.323 582.25 546.713ZM565.658 534.269C571.514 534.269 575.967 537.929 577.065 543.785H554.19C555.227 538.051 559.68 534.269 565.658 534.269ZM605.054 529.938C600.296 529.938 596.88 531.707 594.501 535.123L593.708 530.06H589.987V563H595.172V545.127C595.172 538.722 598.588 534.818 604.627 534.818H607.982V529.938H605.054ZM637.612 530.06L626.571 555.009L614.859 530.06H609.247L623.887 560.804L622.728 563.244C620.044 568.734 618.519 570.076 614.066 570.076H611.443V574.773H614.554C620.776 574.773 623.887 572.211 627.425 564.403L643.163 530.06H637.612ZM690.212 518.348V534.269C687.162 531.219 682.892 529.389 678.012 529.389C668.13 529.389 660.993 536.709 660.993 546.591C660.993 556.351 668.13 563.732 678.012 563.732C683.197 563.732 687.65 561.719 690.7 558.364L691.371 563.061H695.397V518.348H690.212ZM678.378 558.73C671.424 558.73 666.3 553.545 666.3 546.591C666.3 539.576 671.424 534.391 678.378 534.391C685.393 534.391 690.517 539.637 690.517 546.591C690.517 553.484 685.393 558.73 678.378 558.73ZM733.972 530.06L733.301 535.123C730.251 531.524 725.676 529.389 720.308 529.389C710.548 529.389 703.228 536.709 703.228 546.591C703.228 556.351 710.548 563.732 720.308 563.732C725.676 563.732 730.19 561.597 733.24 558.059L733.789 563H738.059V530.06H733.972ZM720.674 558.73C713.72 558.73 708.535 553.484 708.535 546.53C708.535 539.637 713.72 534.391 720.674 534.391C727.689 534.391 732.752 539.576 732.752 546.53C732.752 553.545 727.689 558.73 720.674 558.73ZM772.598 530.06L761.557 555.009L749.845 530.06H744.233L758.873 560.804L757.714 563.244C755.03 568.734 753.505 570.076 749.052 570.076H746.429V574.773H749.54C755.762 574.773 758.873 572.211 762.411 564.403L778.149 530.06H772.598ZM815.072 529.389C810.314 529.389 806.349 531.341 803.787 534.574V518.348H798.602V563H803.787V545.066C803.787 538.905 808.118 534.086 813.791 534.086C819.464 534.086 822.636 537.868 822.636 544.517V563H827.821V543.297C827.821 534.757 822.941 529.389 815.072 529.389ZM865.861 530.06L865.19 535.123C862.14 531.524 857.565 529.389 852.197 529.389C842.437 529.389 835.117 536.709 835.117 546.591C835.117 556.351 842.437 563.732 852.197 563.732C857.565 563.732 862.079 561.597 865.129 558.059L865.678 563H869.948V530.06H865.861ZM852.563 558.73C845.609 558.73 840.424 553.484 840.424 546.53C840.424 539.637 845.609 534.391 852.563 534.391C859.578 534.391 864.641 539.576 864.641 546.53C864.641 553.545 859.578 558.73 852.563 558.73ZM890.823 563.732C898.631 563.732 903.877 559.767 903.877 553.606C903.877 545.554 897.167 544.456 891.494 543.541C887.102 542.87 883.32 542.199 883.32 538.722C883.32 535.855 886.126 534.025 890.579 534.025C895.215 534.025 898.021 535.977 898.204 539.576H903.084C902.901 533.354 898.143 529.389 890.701 529.389C883.259 529.389 878.257 533.232 878.257 538.905C878.257 546.347 884.601 547.506 890.213 548.482C894.666 549.214 898.753 549.946 898.753 553.85C898.753 557.022 895.52 558.974 891.006 558.974C886.37 558.974 883.015 556.839 882.771 552.935H877.647C877.952 559.584 883.015 563.732 890.823 563.732ZM927.448 524.387H933.06V518.47H927.448V524.387ZM927.631 563H932.816V530.06H927.631V563ZM956.903 558.242C952.389 558.242 949.949 555.802 949.949 551.349V534.757H960.319V530.06H949.949V523.106H949.156L938.969 533.842V534.757H944.764V551.532C944.764 558.669 949.156 563 956.232 563H960.502V558.242H956.903ZM977.855 563.732C985.663 563.732 990.909 559.767 990.909 553.606C990.909 545.554 984.199 544.456 978.526 543.541C974.134 542.87 970.352 542.199 970.352 538.722C970.352 535.855 973.158 534.025 977.611 534.025C982.247 534.025 985.053 535.977 985.236 539.576H990.116C989.933 533.354 985.175 529.389 977.733 529.389C970.291 529.389 965.289 533.232 965.289 538.905C965.289 546.347 971.633 547.506 977.245 548.482C981.698 549.214 985.785 549.946 985.785 553.85C985.785 557.022 982.552 558.974 978.038 558.974C973.402 558.974 970.047 556.839 969.803 552.935H964.679C964.984 559.584 970.047 563.732 977.855 563.732ZM1029.55 563.732C1039.49 563.732 1046.99 556.412 1046.99 546.53C1046.99 536.709 1039.49 529.389 1029.55 529.389C1019.54 529.389 1012.04 536.648 1012.04 546.53C1012.04 556.412 1019.54 563.732 1029.55 563.732ZM1029.55 558.73C1022.47 558.73 1017.35 553.606 1017.35 546.53C1017.35 539.515 1022.47 534.391 1029.55 534.391C1036.56 534.391 1041.69 539.515 1041.69 546.591C1041.69 553.606 1036.56 558.73 1029.55 558.73ZM1094.53 530.06L1086.18 554.582L1075.99 530.609H1074.1L1064.03 554.338L1055.8 530.06H1050.43L1061.53 563H1065.74L1075.08 540.613L1084.35 563H1088.56L1099.78 530.06H1094.53ZM1122.63 529.389C1117.57 529.389 1113.36 531.585 1110.86 535.245L1109.88 530.06H1106.16V563H1111.35V545.066C1111.35 538.905 1115.68 534.086 1121.35 534.086C1127.03 534.086 1130.2 537.868 1130.2 544.517V563H1135.38V543.297C1135.38 535.245 1130.5 529.389 1122.63 529.389ZM1171.7 563.732C1179.51 563.732 1184.75 559.767 1184.75 553.606C1184.75 545.554 1178.04 544.456 1172.37 543.541C1167.98 542.87 1164.19 542.199 1164.19 538.722C1164.19 535.855 1167 534.025 1171.45 534.025C1176.09 534.025 1178.9 535.977 1179.08 539.576H1183.96C1183.78 533.354 1179.02 529.389 1171.58 529.389C1164.13 529.389 1159.13 533.232 1159.13 538.905C1159.13 546.347 1165.48 547.506 1171.09 548.482C1175.54 549.214 1179.63 549.946 1179.63 553.85C1179.63 557.022 1176.39 558.974 1171.88 558.974C1167.24 558.974 1163.89 556.839 1163.65 552.935H1158.52C1158.83 559.584 1163.89 563.732 1171.7 563.732ZM1205.91 558.242C1201.39 558.242 1198.95 555.802 1198.95 551.349V534.757H1209.32V530.06H1198.95V523.106H1198.16L1187.97 533.842V534.757H1193.77V551.532C1193.77 558.669 1198.16 563 1205.24 563H1209.51V558.242H1205.91ZM1230.9 563.732C1240.84 563.732 1248.34 556.412 1248.34 546.53C1248.34 536.709 1240.84 529.389 1230.9 529.389C1220.89 529.389 1213.39 536.648 1213.39 546.53C1213.39 556.412 1220.89 563.732 1230.9 563.732ZM1230.9 558.73C1223.82 558.73 1218.7 553.606 1218.7 546.53C1218.7 539.515 1223.82 534.391 1230.9 534.391C1237.91 534.391 1243.03 539.515 1243.03 546.591C1243.03 553.606 1237.91 558.73 1230.9 558.73ZM1271.29 529.938C1266.53 529.938 1263.11 531.707 1260.74 535.123L1259.94 530.06H1256.22V563H1261.41V545.127C1261.41 538.722 1264.82 534.818 1270.86 534.818H1274.22V529.938H1271.29ZM1303.85 530.06L1292.81 555.009L1281.09 530.06H1275.48L1290.12 560.804L1288.96 563.244C1286.28 568.734 1284.75 570.076 1280.3 570.076H1277.68V574.773H1280.79C1287.01 574.773 1290.12 572.211 1293.66 564.403L1309.4 530.06H1303.85Z" fill="#9A9A9A"/>
</svg>
